<svg xmlns="http://www.w3.org/2000/svg" viewBox="0 0 64 64" id="glare">
  <path fill="#222" d="M8.468 26.302a1.5 1.5 0 0 1-.288-2.972c7.207-1.418 9.951-4.904 11.293-14.346a1.5 1.5 0 1 1 2.97.422c-1.51 10.63-5.22 15.201-13.684 16.867a1.479 1.479 0 0 1-.291.029Z"></path>
  <path fill="#222" d="M33.447 26.302a1.488 1.488 0 0 1-.292-.029c-8.463-1.666-12.172-6.237-13.682-16.867a1.5 1.5 0 1 1 2.97-.422c1.341 9.442 4.086 12.927 11.293 14.346a1.5 1.5 0 0 1-.288 2.972zM20.956 41.909a1.5 1.5 0 0 1-1.483-1.289c-1.342-9.441-4.086-12.928-11.294-14.347a1.5 1.5 0 1 1 .58-2.943c8.464 1.667 12.173 6.238 13.683 16.868a1.5 1.5 0 0 1-1.274 1.696 1.565 1.565 0 0 1-.212.015z"></path>
  <path fill="#222" d="M20.96 41.91a1.565 1.565 0 0 1-.213-.015 1.5 1.5 0 0 1-1.274-1.697c1.51-10.63 5.219-15.2 13.683-16.868a1.5 1.5 0 1 1 .58 2.943c-7.207 1.42-9.951 4.906-11.293 14.347a1.5 1.5 0 0 1-1.483 1.29zm12.124 2.243a1.5 1.5 0 0 1-.288-2.971c5.436-1.07 7.509-3.717 8.528-10.891a1.5 1.5 0 0 1 2.97.422c-1.2 8.446-4.16 12.082-10.918 13.412a1.489 1.489 0 0 1-.292.028z"></path>
  <path fill="#222" d="M52.534 44.153a1.496 1.496 0 0 1-.292-.028c-6.758-1.33-9.718-4.965-10.918-13.412a1.5 1.5 0 0 1 2.97-.422c1.02 7.174 3.093 9.82 8.528 10.89a1.5 1.5 0 0 1-.288 2.972zm-9.726 12.152a1.5 1.5 0 0 1-1.484-1.29c-1.02-7.173-3.092-9.82-8.528-10.89a1.5 1.5 0 1 1 .58-2.943c6.76 1.33 9.72 4.966 10.92 13.412a1.5 1.5 0 0 1-1.276 1.696 1.565 1.565 0 0 1-.212.015z"></path>
  <path fill="#222" d="M42.812 56.305a1.565 1.565 0 0 1-.213-.015 1.5 1.5 0 0 1-1.275-1.696c1.2-8.447 4.16-12.082 10.918-13.412a1.5 1.5 0 0 1 .58 2.943c-5.436 1.07-7.508 3.717-8.527 10.89a1.5 1.5 0 0 1-1.483 1.29zm-.291-36.76a1.5 1.5 0 0 1-.289-2.972c3.416-.672 4.657-2.276 5.309-6.867a1.5 1.5 0 1 1 2.97.422c-.69 4.862-2.264 8.32-7.699 9.389a1.496 1.496 0 0 1-.291.028z"></path>
  <path fill="#222" d="M55.532 19.545a1.496 1.496 0 0 1-.292-.028c-5.433-1.07-7.007-4.527-7.699-9.39a1.5 1.5 0 1 1 2.97-.42c.653 4.59 1.894 6.194 5.31 6.866a1.5 1.5 0 0 1-.289 2.972zm-6.508 8.129a1.5 1.5 0 0 1-1.483-1.29c-.652-4.59-1.893-6.196-5.309-6.867a1.5 1.5 0 0 1 .58-2.944c5.435 1.07 7.008 4.528 7.7 9.39a1.5 1.5 0 0 1-1.275 1.696 1.581 1.581 0 0 1-.213.015z"></path>
  <path fill="#222" d="M49.028 27.674a1.581 1.581 0 0 1-.213-.015 1.5 1.5 0 0 1-1.274-1.696c.692-4.862 2.266-8.32 7.7-9.39a1.5 1.5 0 1 1 .58 2.943c-3.416.672-4.656 2.278-5.31 6.868a1.5 1.5 0 0 1-1.483 1.29Z"></path>
</svg>
